<svg width="80" height="80" viewBox="0 0 80 80" fill="none" xmlns="http://www.w3.org/2000/svg">
<circle cx="40" cy="40" r="40" fill="black"/>
<path d="M61 19H19V61H61V19Z" fill="#FF7C00"/>
<path d="M59.1577 20.8523H20.8516V59.1584H59.1577V20.8523Z" fill="#261300"/>
<path d="M33.5113 42.9113L32.0036 47.9398C31.9806 48.1121 31.9002 48.1703 31.7501 48.1703H29.2186C29.0464 48.1703 28.9996 48.0785 29.0464 47.8824C30.3925 43.4634 32.6484 36.0879 34.2357 31.0939C34.3046 30.806 34.385 30.5188 34.4309 29.5058C34.4309 29.3909 34.4998 29.3335 34.5802 29.3335H38.0091C38.1354 29.3335 38.1584 29.3679 38.2043 29.4828C40.0451 35.4087 42.059 41.9335 43.9465 47.9169C43.9925 48.0891 43.9465 48.1818 43.7972 48.1818H41.0123C40.8859 48.1818 40.84 48.1244 40.7932 48.0096L39.2051 42.9236H33.5089V42.9113H33.5113ZM38.5398 40.0804C38.0452 38.1469 36.8254 34.2463 36.3307 32.221H36.3078C35.9394 34.1315 34.9157 37.3873 34.1676 40.0804H38.5398Z" fill="#FF7C00"/>
<path d="M46.4668 30.4146C46.4668 29.3441 47.1805 28.6198 48.1238 28.6198C49.1246 28.6198 49.7349 29.3449 49.7349 30.4146C49.7349 31.5081 49.0787 32.2094 48.1009 32.2094C47.1345 32.2094 46.4668 31.5196 46.4668 30.4146ZM46.6399 34.3505C46.6399 34.1782 46.6858 34.1199 46.8122 34.1199H49.4011C49.5504 34.1199 49.5963 34.1544 49.5963 34.3505V47.9283C49.5963 48.0776 49.5504 48.1588 49.4011 48.1588H46.8581C46.7088 48.1588 46.6391 48.1014 46.6391 47.8938V34.3505H46.6399Z" fill="#FF7C00"/>
</svg>
