<svg width="80" height="80" viewBox="0 0 80 80" fill="none" xmlns="http://www.w3.org/2000/svg">
<circle cx="40" cy="40" r="40" fill="black"/>
<path d="M39.4941 61L24.3703 56.8015L21 19H58.0335L54.6596 56.7956L39.4941 61Z" fill="#264DE4"/>
<path d="M51.7721 54.3889L54.6553 22.0908H39.5176V57.7863L51.7721 54.3889Z" fill="#2965F1"/>
<path d="M28.7266 36.1108L29.1421 40.747H39.517V36.1108H28.7266Z" fill="#EBEBEB"/>
<path d="M27.8906 26.7271L28.3121 31.3633H39.516V26.7271H27.8906Z" fill="#EBEBEB"/>
<path d="M39.5174 48.1516L39.4971 48.157L34.3337 46.7628L34.0036 43.0652H29.3496L29.9991 50.3447L39.4961 52.9811L39.5174 52.9752V48.1516Z" fill="#EBEBEB"/>
<path d="M50.2768 36.1108L51.1138 26.7271H39.5V31.3633H46.0329L45.611 36.1108H39.5V40.747H45.209L44.6708 46.7598L39.5 48.1554V52.9788L49.0045 50.3447L49.0742 49.5614L50.1637 37.3558L50.2768 36.1108Z" fill="white"/>
</svg>
