<svg width="80" height="80" viewBox="0 0 80 80" fill="none" xmlns="http://www.w3.org/2000/svg">
<circle cx="40" cy="40" r="40" fill="black"/>
<path d="M33.3333 59.0002C36.8293 59.0002 39.6667 56.1628 39.6667 52.6668V46.3335H33.3333C29.8373 46.3335 27 49.1708 27 52.6668C27 56.1628 29.8373 59.0002 33.3333 59.0002Z" fill="#0ACF83"/>
<path d="M27 39.9998C27 36.5038 29.8373 33.6665 33.3333 33.6665H39.6667V46.3332H33.3333C29.8373 46.3332 27 43.4958 27 39.9998Z" fill="#A259FF"/>
<path d="M27 27.3333C27 23.8373 29.8373 21 33.3333 21H39.6667V33.6667H33.3333C29.8373 33.6667 27 30.8293 27 27.3333Z" fill="#F24E1E"/>
<path d="M39.666 21H45.9993C49.4953 21 52.3327 23.8373 52.3327 27.3333C52.3327 30.8293 49.4953 33.6667 45.9993 33.6667H39.666V21Z" fill="#FF7262"/>
<path d="M52.3327 39.9998C52.3327 43.4958 49.4953 46.3332 45.9993 46.3332C42.5033 46.3332 39.666 43.4958 39.666 39.9998C39.666 36.5038 42.5033 33.6665 45.9993 33.6665C49.4953 33.6665 52.3327 36.5038 52.3327 39.9998Z" fill="#1ABCFE"/>
</svg>
