<svg width="80" height="80" viewBox="0 0 80 80" fill="none" xmlns="http://www.w3.org/2000/svg">
<circle cx="40" cy="40" r="40" fill="black"/>
<path d="M58.0335 19L54.6596 56.7956L39.4941 61L24.3703 56.8015L21 19H58.0335Z" fill="#E44D26"/>
<path d="M39.5176 57.7863L51.7721 54.3889L54.6553 22.0908H39.5176V57.7863Z" fill="#F16529"/>
<path d="M32.9574 31.3633H39.516V26.7271H27.8906L28.0016 27.9709L29.1411 40.747H39.516V36.1108H33.3811L32.9574 31.3633Z" fill="#EBEBEB"/>
<path d="M34.0036 43.0652H29.3496L29.9991 50.3447L39.4961 52.9811L39.5174 52.9752V48.1516L39.4971 48.157L34.3337 46.7628L34.0036 43.0652Z" fill="#EBEBEB"/>
<path d="M39.5 40.747H45.209L44.6708 46.7598L39.5 48.1554V52.9788L49.0045 50.3447L49.0742 49.5614L50.1637 37.3558L50.2768 36.1108H39.5V40.747Z" fill="white"/>
<path d="M39.5 31.352V31.3633H50.6986L50.7916 30.3212L51.0029 27.9709L51.1138 26.7271H39.5V31.352Z" fill="white"/>
</svg>
