<svg width="80" height="80" viewBox="0 0 80 80" fill="none" xmlns="http://www.w3.org/2000/svg">
<circle cx="40" cy="40" r="40" fill="black"/>
<path d="M19 19H60.48V60.48H19V19Z" fill="#F7DF1E"/>
<path d="M29.9063 53.6637L33.0807 51.7427C33.693 52.8285 34.2501 53.7471 35.5864 53.7471C36.8673 53.7471 37.6748 53.2461 37.6748 51.2972V38.0433H41.5729V51.3523C41.5729 55.3897 39.2063 57.2274 35.7535 57.2274C32.6352 57.2274 30.8251 55.6124 29.9062 53.6634" fill="black"/>
<path d="M43.6904 53.2461L46.8644 51.4084C47.6999 52.7729 48.7858 53.7752 50.7069 53.7752C52.3221 53.7752 53.352 52.9677 53.352 51.8539C53.352 50.5174 52.294 50.044 50.512 49.2646L49.5377 48.8467C46.7253 47.6496 44.8597 46.1461 44.8597 42.9718C44.8597 40.0482 47.0872 37.8206 50.5678 37.8206C53.0459 37.8206 54.8279 38.6838 56.1086 40.9392L53.0736 42.8882C52.4053 41.691 51.6816 41.2177 50.5679 41.2177C49.4263 41.2177 48.7023 41.9416 48.7023 42.8882C48.7023 44.0576 49.4263 44.5311 51.0967 45.2551L52.0712 45.6727C55.3846 47.0928 57.2502 48.5406 57.2502 51.7982C57.2502 55.3067 54.4937 57.2278 50.7906 57.2278C47.1709 57.2278 44.8319 55.5016 43.6905 53.2461" fill="black"/>
</svg>
