<svg width="80" height="80" viewBox="0 0 80 80" fill="none" xmlns="http://www.w3.org/2000/svg">
<circle cx="40" cy="40" r="40" fill="black"/>
<circle cx="39.5002" cy="37.4999" r="27.6857" fill="white"/>
<path d="M37.6334 9.01534C37.5109 9.02648 37.1208 9.06548 36.7698 9.09333C28.6739 9.82314 21.0906 14.1908 16.2877 20.9039C13.6132 24.6365 11.9026 28.8705 11.2563 33.3552C11.0279 34.9206 11 35.383 11 37.5056C11 39.6281 11.0279 40.0905 11.2563 41.656C12.8053 52.3579 20.422 61.3496 30.7522 64.6811C32.6021 65.2772 34.5522 65.6838 36.7698 65.929C37.6334 66.0237 41.3666 66.0237 42.2302 65.929C46.0581 65.5056 49.3009 64.5585 52.4991 62.9262C52.9894 62.6755 53.0842 62.6086 53.0173 62.5529C52.9727 62.5195 50.8833 59.7173 48.376 56.3301L43.8182 50.1741L38.107 41.7228C34.9645 37.0766 32.3792 33.2772 32.3569 33.2772C32.3346 33.2716 32.3123 37.0265 32.3012 41.6114C32.2845 49.6393 32.2789 49.9624 32.1786 50.1518C32.0337 50.4248 31.9223 50.5362 31.6883 50.6588C31.51 50.7479 31.354 50.7646 30.5126 50.7646H29.5487L29.2924 50.6031C29.1252 50.4972 29.0026 50.3579 28.9191 50.1964L28.8021 49.9457L28.8132 38.7758L28.8299 27.6003L29.0026 27.383C29.0918 27.266 29.2812 27.1156 29.415 27.0432C29.6434 26.9318 29.7326 26.9206 30.6965 26.9206C31.8331 26.9206 32.0226 26.9652 32.3179 27.2883C32.4015 27.3774 35.4938 32.0348 39.1935 37.6449C42.8933 43.2549 47.9525 50.915 50.4375 54.6755L54.9507 61.5111L55.1792 61.3607C57.2018 60.046 59.3413 58.1741 61.0352 56.2242C64.6402 52.085 66.9636 47.0376 67.7437 41.656C67.9721 40.0905 68 39.6281 68 37.5056C68 35.383 67.9721 34.9206 67.7437 33.3552C66.1947 22.6532 58.578 13.6616 48.2478 10.3301C46.4258 9.73957 44.4868 9.33289 42.3138 9.08776C41.7789 9.03205 38.0959 8.97077 37.6334 9.01534ZM49.3009 26.2521C49.5683 26.3858 49.7856 26.6421 49.8636 26.9095C49.9082 27.0543 49.9194 30.1518 49.9082 37.1323L49.8915 47.149L48.1252 44.4415L46.3534 41.734V34.4527C46.3534 29.7451 46.3757 27.0989 46.4091 26.9708C46.4982 26.6588 46.6933 26.4137 46.9607 26.2688C47.1891 26.1518 47.2727 26.1407 48.1475 26.1407C48.9721 26.1407 49.117 26.1518 49.3009 26.2521Z" fill="black"/>
</svg>
