<svg width="80" height="80" viewBox="0 0 80 80" fill="none" xmlns="http://www.w3.org/2000/svg">
<circle cx="40" cy="40" r="40" fill="black"/>
<path d="M61 19H19V61H61V19Z" fill="#00C8FF"/>
<path d="M59.1577 20.8523H20.8516V59.1584H59.1577V20.8523Z" fill="#001D26"/>
<path d="M29.207 29.1489C29.207 28.9996 29.23 28.9422 29.3563 28.9422C30.2997 28.9077 32.1643 28.8848 34.051 28.8848C38.9187 28.8848 40.7825 31.7157 40.8054 35.0757C40.8054 39.667 37.3765 41.4159 33.7286 41.4159C33.0379 41.4159 32.3595 41.4159 32.1864 41.4159V47.9751C32.1864 48.1473 32.1405 48.2056 32.0141 48.2056H29.3793C29.253 48.2056 29.207 48.1482 29.207 47.9989V29.1489ZM32.1872 38.6079C32.3825 38.6424 32.7623 38.6654 33.7983 38.6654C35.7663 38.6654 37.653 38.1018 37.653 35.2135C37.653 32.9002 36.3872 31.7157 34.051 31.7157C33.0846 31.7157 32.3825 31.7501 32.1872 31.7731V38.6079Z" fill="#00C8FF"/>
<path d="M47.0073 36.4447C45.8105 36.4447 45.4881 37.1928 45.4881 37.7449C45.4881 38.4356 45.8105 38.8154 47.6398 39.6784C50.1598 40.8867 51.2303 41.9564 51.2303 44.0392C51.2303 46.9275 49.3551 48.573 46.662 48.573C45.3733 48.573 43.7392 48.4467 42.704 47.6986C42.6121 47.6412 42.5547 47.5493 42.5547 47.4106V44.7528C42.5547 44.6035 42.6466 44.5461 42.727 44.6035C43.9927 45.5584 45.4077 45.8233 46.685 45.8233C47.8129 45.8233 48.2042 45.0752 48.2042 44.4428C48.2042 43.6946 47.9277 43.2574 46.1788 42.4174C43.6588 41.2091 42.6121 40.1624 42.6121 38.0566C42.6121 35.7204 44.3725 33.7877 47.2493 33.7877C48.7341 33.7877 49.7923 33.8222 50.4715 34.2939C50.5979 34.4087 50.6208 34.5006 50.6208 34.6737V37.0444C50.6208 37.2166 50.5289 37.3093 50.4018 37.2166C49.5273 36.6285 48.2846 36.4447 47.0073 36.4447Z" fill="#00C8FF"/>
</svg>
