<svg width="80" height="80" viewBox="0 0 80 80" fill="none" xmlns="http://www.w3.org/2000/svg">
<circle cx="40" cy="40" r="40" fill="black"/>
<path d="M55.5192 33.0005C55.0356 32.834 54.5344 32.6765 54.0184 32.5275C54.1032 32.1814 54.181 31.8397 54.2503 31.5038C55.3864 25.989 54.6436 21.5462 52.107 20.0834C49.6748 18.6808 45.697 20.1433 41.6797 23.6394C41.2934 23.9756 40.906 24.3315 40.5188 24.7046C40.2608 24.4578 40.0032 24.2193 39.7462 23.9911C35.536 20.2528 31.3158 18.6774 28.7817 20.1444C26.3518 21.5511 25.6322 25.7277 26.6549 30.9542C26.7537 31.459 26.8691 31.9746 26.9996 32.4987C26.4024 32.6683 25.8258 32.849 25.2741 33.0413C20.338 34.7622 17.1855 37.4594 17.1855 40.257C17.1855 43.1464 20.5697 46.0446 25.711 47.8019C26.1167 47.9405 26.5377 48.0716 26.9716 48.1961C26.8308 48.763 26.7083 49.3186 26.6054 49.8604C25.6303 54.9962 26.3918 59.0741 28.8153 60.4719C31.3185 61.9154 35.5195 60.4317 39.6103 56.8559C39.9336 56.5732 40.2581 56.2734 40.5832 55.9592C41.0045 56.365 41.4252 56.749 41.8436 57.1091C45.806 60.5189 49.7195 61.8958 52.1407 60.4941C54.6414 59.0464 55.4541 54.6657 54.399 49.3358C54.3184 48.9288 54.2246 48.5129 54.1193 48.0897C54.4143 48.0024 54.704 47.9124 54.9864 47.8188C60.3313 46.0479 63.8088 43.185 63.8088 40.257C63.8088 37.4492 60.5548 34.7339 55.5192 33.0005ZM54.36 45.9282C54.105 46.0126 53.8435 46.0942 53.5769 46.1733C52.9868 44.3053 52.1905 42.3189 51.2159 40.2667C52.1459 38.2634 52.9115 36.3024 53.485 34.4465C53.962 34.5846 54.4249 34.7301 54.8709 34.8837C59.1854 36.369 61.8171 38.5649 61.8171 40.257C61.8171 42.0594 58.9749 44.3991 54.36 45.9282ZM52.4451 49.7226C52.9117 52.0794 52.9783 54.2103 52.6692 55.876C52.3916 57.3728 51.8331 58.3707 51.1427 58.7704C49.6733 59.6209 46.5312 58.5154 43.1425 55.5993C42.7541 55.265 42.3628 54.9081 41.9702 54.5303C43.284 53.0936 44.5969 51.4232 45.8784 49.5682C48.1322 49.3682 50.2617 49.0412 52.1927 48.5948C52.2878 48.9785 52.3723 49.3547 52.4451 49.7226ZM33.0805 58.6234C31.6449 59.1304 30.5016 59.1449 29.8105 58.7464C28.3398 57.8982 27.7284 54.6239 28.5624 50.2318C28.6579 49.7289 28.7716 49.2122 28.9027 48.684C30.8126 49.1064 32.9264 49.4103 35.1857 49.5934C36.4757 51.4086 37.8266 53.0771 39.188 54.5381C38.8905 54.8252 38.5943 55.0986 38.2996 55.3562C36.4907 56.9373 34.678 58.0592 33.0805 58.6234ZM26.3551 45.9172C24.0818 45.1402 22.2043 44.1303 20.9174 43.0283C19.761 42.0379 19.1772 41.0548 19.1772 40.257C19.1772 38.5593 21.7083 36.3939 25.9297 34.9221C26.4419 34.7435 26.9781 34.5752 27.5345 34.4171C28.1179 36.3149 28.8832 38.2991 29.8068 40.3055C28.8713 42.3417 28.0951 44.3575 27.506 46.2775C27.1093 46.1635 26.7249 46.0435 26.3551 45.9172ZM28.6095 30.5717C27.7333 26.0938 28.3153 22.7158 29.7796 21.8682C31.3394 20.9652 34.7885 22.2527 38.4237 25.4805C38.6561 25.6868 38.8894 25.9028 39.1233 26.1262C37.7687 27.5807 36.4302 29.2367 35.1515 31.0412C32.9588 31.2444 30.8599 31.5709 28.93 32.0081C28.8087 31.52 28.7012 31.0405 28.6095 30.5717ZM48.7207 35.5377C48.2594 34.7408 47.7858 33.9628 47.3029 33.206C48.7905 33.3941 50.2158 33.6437 51.5542 33.9492C51.1524 35.237 50.6515 36.5835 50.062 37.9639C49.6391 37.1609 49.1918 36.3514 48.7207 35.5377ZM40.5194 27.5496C41.4381 28.5449 42.3581 29.6561 43.263 30.8618C42.3512 30.8187 41.428 30.7963 40.4972 30.7963C39.5752 30.7963 38.6588 30.8182 37.7526 30.8605C38.6584 29.6661 39.5864 28.5563 40.5194 27.5496ZM32.2656 35.5515C31.8048 36.3506 31.3658 37.1557 30.9495 37.9624C30.3695 36.5868 29.8733 35.2342 29.468 33.9281C30.7982 33.6304 32.2167 33.387 33.6948 33.2025C33.2052 33.9663 32.7277 34.7502 32.2656 35.5515ZM33.7374 47.4535C32.2103 47.2832 30.7704 47.0523 29.4405 46.7628C29.8523 45.4334 30.3594 44.0519 30.9517 42.6468C31.3691 43.4528 31.8098 44.2583 32.2735 45.0592C32.7458 45.875 33.2352 46.6742 33.7374 47.4535ZM40.5745 53.1048C39.6305 52.0863 38.6889 50.9597 37.7693 49.7478C38.6621 49.7828 39.5722 49.8007 40.4972 49.8007C41.4475 49.8007 42.3869 49.7793 43.3116 49.7381C42.4037 50.9719 41.487 52.1003 40.5745 53.1048ZM50.081 42.5751C50.7042 43.9955 51.2295 45.3698 51.6466 46.6765C50.2948 46.9849 48.8352 47.2333 47.2975 47.4179C47.7815 46.6509 48.2592 45.8595 48.7287 45.0455C49.2036 44.2219 49.6546 43.3971 50.081 42.5751ZM47.0034 44.0504C46.2746 45.3141 45.5264 46.5204 44.7668 47.6591C43.3833 47.758 41.954 47.809 40.4972 47.809C39.0463 47.809 37.635 47.7639 36.276 47.6757C35.4857 46.5221 34.7213 45.3122 33.9971 44.0613C33.2748 42.8138 32.6103 41.5558 32.0079 40.3048C32.6101 39.0509 33.2731 37.7915 33.9912 36.5462C34.7112 35.2977 35.4688 34.0939 36.2517 32.9475C37.6383 32.8427 39.0602 32.788 40.4971 32.788C41.9405 32.788 43.3643 32.8431 44.7505 32.9488C45.5214 34.0869 46.274 35.287 46.9969 36.5357C47.7279 37.7985 48.3995 39.0495 49.0068 40.2765C48.4013 41.5246 47.7312 42.7882 47.0034 44.0504ZM51.1121 21.8089C52.6734 22.7093 53.2805 26.3404 52.2996 31.1018C52.237 31.4057 52.1666 31.7151 52.0901 32.0288C50.1558 31.5824 48.0553 31.2503 45.8562 31.044C44.5751 29.2197 43.2475 27.5611 41.915 26.1253C42.2732 25.7806 42.631 25.452 42.9873 25.1418C46.4293 22.1464 49.6464 20.9637 51.1121 21.8089ZM40.4972 36.0937C42.7965 36.0937 44.6605 37.9576 44.6605 40.257C44.6605 42.5563 42.7965 44.4203 40.4972 44.4203C38.1979 44.4203 36.3339 42.5563 36.3339 40.257C36.3339 37.9576 38.1979 36.0937 40.4972 36.0937Z" fill="#00D8FF"/>
</svg>
