<svg width="80" height="80" viewBox="0 0 80 80" fill="none" xmlns="http://www.w3.org/2000/svg">
<circle cx="40" cy="40" r="40" fill="black"/>
<path d="M48.6542 48.3324C50.2868 48.1635 51.5254 46.756 51.4691 45.067C51.4128 43.378 50.0053 42.0268 48.3164 42.0268H48.2038C46.4585 42.0831 45.1074 43.5469 45.1637 45.2922C45.22 46.1367 45.5578 46.8686 46.0644 47.3753C44.1503 51.1475 41.2228 53.9062 36.8315 56.2145C33.8477 57.7909 30.7513 58.3539 27.6549 57.9598C25.1215 57.622 23.1511 56.496 21.9125 54.6381C20.111 51.8794 19.9421 48.8954 21.4621 45.9115C22.5318 43.7721 24.2207 42.1957 25.2904 41.4075C25.0652 40.6756 24.7274 39.437 24.5585 38.5362C16.3953 44.4477 17.2398 52.4424 19.7169 56.2145C21.5747 59.0295 25.3467 60.7748 29.5128 60.7748C30.6387 60.7748 31.7647 60.6622 32.8907 60.3807C40.0968 58.9732 45.5578 54.6944 48.6542 48.3324ZM58.5627 41.3512C54.284 36.3405 47.9786 33.5818 40.7724 33.5818H39.8716C39.365 32.5684 38.2953 31.8928 37.113 31.8928H37.0004C35.2552 31.9491 33.904 33.4129 33.9603 35.1582C34.0166 36.8472 35.4241 38.1984 37.113 38.1984H37.2256C38.4642 38.1421 39.5339 37.3539 39.9842 36.2842H40.9976C45.2763 36.2842 49.3297 37.5228 52.9891 39.9437C55.804 41.8016 57.8308 44.2225 58.9567 47.1501C59.9138 49.5147 59.8575 51.8231 58.8441 53.7936C57.2678 56.7775 54.6218 58.4102 51.1313 58.4102C48.8794 58.4102 46.74 57.7346 45.6141 57.2279C44.9948 57.7909 43.8688 58.6917 43.0806 59.2547C45.5015 60.3807 47.9786 61 50.3431 61C55.7477 61 59.7449 58.0161 61.265 55.0322C62.8976 51.7668 62.785 46.1367 58.5627 41.3512ZM29.9632 49.2895C30.0195 50.9786 31.4269 52.3298 33.1159 52.3298H33.2285C34.9737 52.2735 36.3249 50.8097 36.2686 49.0643C36.2123 47.3753 34.8048 46.0241 33.1159 46.0241H33.0033C32.8907 46.0241 32.7218 46.0241 32.6092 46.0804C30.3009 42.252 29.3439 38.0858 29.6817 33.5818C29.9069 30.2038 31.0328 27.2761 33.0033 24.8552C34.6359 22.7721 37.7886 21.7587 39.9279 21.7024C45.8956 21.5898 48.429 29.0214 48.5979 32.0054C49.3297 32.1743 50.5683 32.5684 51.4128 32.8499C50.7372 23.7292 45.1074 19 39.7028 19C34.6359 19 29.9632 22.6595 28.1053 28.0643C25.5156 35.2708 27.2045 42.1957 30.3572 47.6568C30.0758 48.0509 29.9069 48.6702 29.9632 49.2895Z" fill="#764ABC"/>
</svg>
