<svg width="80" height="80" viewBox="0 0 80 80" fill="none" xmlns="http://www.w3.org/2000/svg">
<circle cx="40" cy="40" r="40" fill="black"/>
<path d="M62.2242 42.1442C60.2704 42.1544 58.5723 42.6249 57.1504 43.3205C56.6287 42.2874 56.107 41.3667 56.015 40.6916C55.9127 39.9039 55.7899 39.4231 55.9127 38.482C56.0354 37.5409 56.5878 36.2009 56.5776 36.0986C56.5674 35.9963 56.4548 35.5155 55.3296 35.5053C54.2044 35.495 53.2326 35.7201 53.12 36.0167C53.0075 36.3134 52.7927 36.9885 52.6495 37.6841C52.4551 38.7071 50.399 42.359 49.2226 44.2719C48.8441 43.5251 48.5168 42.8704 48.4452 42.3487C48.3429 41.5611 48.2201 41.0803 48.3429 40.1392C48.4656 39.1981 49.018 37.858 49.0078 37.7557C48.9976 37.6534 48.885 37.1727 47.7598 37.1624C46.6346 37.1522 45.6628 37.3772 45.5503 37.6739C45.4377 37.9706 45.315 38.6662 45.0797 39.3413C44.8444 40.0164 42.1132 46.1132 41.3971 47.6885C41.0288 48.4966 40.7117 49.1411 40.4867 49.581C40.4867 49.581 40.4765 49.6116 40.4458 49.6628C40.2514 50.0413 40.1389 50.2459 40.1389 50.2459C40.1389 50.2459 40.1389 50.2459 40.1389 50.2561C39.9854 50.5323 39.8218 50.788 39.7399 50.788C39.6786 50.788 39.566 50.0515 39.7604 49.049C40.1696 46.9315 41.1414 43.6377 41.1311 43.5251C41.1311 43.4638 41.3153 42.8909 40.4969 42.5943C39.699 42.2976 39.4126 42.7886 39.341 42.7886C39.2694 42.7886 39.2182 42.9625 39.2182 42.9625C39.2182 42.9625 40.1082 39.2595 37.5201 39.2595C35.9039 39.2595 33.6739 41.0292 32.5691 42.6249C31.8735 43.0034 30.3902 43.8116 28.8047 44.6811C28.2011 45.0186 27.5771 45.3562 26.9941 45.6733C26.9531 45.6324 26.9122 45.5812 26.8713 45.5403C23.7411 42.1953 17.9512 39.8323 18.1967 35.3416C18.2888 33.7049 18.8514 29.4085 29.3161 24.1915C37.9293 19.9463 44.783 21.1227 45.9697 23.7312C47.6677 27.4547 42.2973 34.3698 33.3977 35.3723C30.0015 35.7508 28.2216 34.4414 27.7715 33.9504C27.3009 33.4389 27.2293 33.4082 27.0554 33.5105C26.769 33.664 26.9531 34.1243 27.0554 34.3902C27.3214 35.0859 28.416 36.3134 30.2675 36.9169C31.9042 37.4488 35.8834 37.7455 40.7015 35.8837C46.0924 33.7969 50.3069 27.9969 49.0692 23.1379C47.8314 18.2073 39.6479 16.5808 31.9042 19.3325C27.3009 20.9692 22.309 23.5471 18.7185 26.9023C14.4528 30.8918 13.7776 34.3596 14.0538 35.8121C15.0461 40.9678 22.1555 44.323 24.9993 46.8088C24.8561 46.8906 24.7231 46.9622 24.6106 47.0236C23.1887 47.7294 17.7671 50.563 16.4168 53.5602C14.8824 56.9564 16.6623 59.391 17.8387 59.7183C21.4906 60.731 25.2448 58.9102 27.26 55.9027C29.2752 52.8953 29.0297 48.9876 28.0988 47.1975C28.0886 47.177 28.0784 47.1566 28.0579 47.1361C28.4262 46.9213 28.8047 46.6963 29.1729 46.4814C29.8992 46.0518 30.6153 45.6529 31.229 45.3255C30.8812 46.2768 30.6255 47.4123 30.5028 49.049C30.3493 50.9722 31.137 53.4681 32.1702 54.4502C32.6305 54.8798 33.1726 54.89 33.5204 54.89C34.7275 54.89 35.2697 53.8875 35.8732 52.7009C36.6097 51.2484 37.2746 49.5605 37.2746 49.5605C37.2746 49.5605 36.4461 54.1228 38.6965 54.1228C39.5149 54.1228 40.3435 53.059 40.7117 52.5168C40.7117 52.527 40.7117 52.527 40.7117 52.527C40.7117 52.527 40.7322 52.4963 40.7731 52.4247C40.8549 52.2918 40.9061 52.2099 40.9061 52.2099C40.9061 52.2099 40.9061 52.1997 40.9061 52.1895C41.2334 51.6166 41.97 50.3175 43.0645 48.1591C44.4762 45.3767 45.8367 41.8987 45.8367 41.8987C45.8367 41.8987 45.9594 42.7477 46.3788 44.1594C46.6243 44.9879 47.1358 45.8984 47.545 46.7781C47.2176 47.2384 47.0131 47.4942 47.0131 47.4942C47.0131 47.4942 47.0131 47.4942 47.0233 47.5044C46.7573 47.8522 46.4709 48.2307 46.1538 48.5989C45.0388 49.9288 43.709 51.4529 43.5248 51.8928C43.31 52.4145 43.3612 52.793 43.7703 53.0999C44.067 53.3249 44.5989 53.3556 45.1411 53.3249C46.1436 53.2533 46.8494 53.0078 47.1972 52.8544C47.7393 52.66 48.3736 52.3634 48.9669 51.9235C50.0614 51.1154 50.7263 49.9594 50.665 48.4353C50.6343 47.5964 50.3581 46.7576 50.0205 45.97C50.1228 45.8268 50.2149 45.6835 50.3172 45.5403C52.0459 43.0137 53.386 40.2415 53.386 40.2415C53.386 40.2415 53.5087 41.0905 53.9282 42.5022C54.1327 43.2183 54.5522 43.9957 54.9204 44.7527C53.2939 46.0723 52.2914 47.6067 51.9334 48.6092C51.289 50.4709 51.7902 51.3097 52.7415 51.5041C53.1712 51.5962 53.7849 51.3916 54.235 51.1972C54.8079 51.0131 55.483 50.696 56.1275 50.2254C57.222 49.4173 58.2757 48.292 58.2143 46.7679C58.1836 46.0723 57.9995 45.3869 57.7437 44.722C59.1247 44.1491 60.9046 43.832 63.1756 44.098C68.0448 44.6708 69.0063 47.709 68.8222 48.9876C68.6381 50.2663 67.6151 50.9619 67.2776 51.1767C66.94 51.3916 66.8275 51.4632 66.8582 51.6166C66.8991 51.8417 67.0628 51.8314 67.3492 51.7905C67.7481 51.7189 69.9065 50.7573 69.9986 48.4046C70.152 45.3971 67.2878 42.1135 62.2242 42.1442ZM24.6618 54.8082C23.0455 56.5677 20.795 57.2326 19.8232 56.67C18.7798 56.0664 19.189 53.4681 21.1735 51.6064C22.3806 50.4709 23.9355 49.4173 24.9686 48.7728C25.2039 48.6296 25.5517 48.425 25.9711 48.1693C26.0427 48.1284 26.0836 48.1079 26.0836 48.1079C26.1655 48.0568 26.2473 48.0056 26.3291 47.9545C27.0554 50.6141 26.3598 52.9567 24.6618 54.8082ZM36.4256 46.8088C35.863 48.1795 34.6866 51.6882 33.9705 51.4939C33.3568 51.3302 32.9783 48.6705 33.8478 46.0416C34.2876 44.722 35.2185 43.1466 35.7607 42.5329C36.6404 41.5509 37.6122 41.2235 37.8475 41.6225C38.1441 42.1442 36.7734 45.9495 36.4256 46.8088ZM46.1333 51.4529C45.8981 51.5757 45.673 51.6575 45.5707 51.5962C45.4991 51.5552 45.673 51.3916 45.673 51.3916C45.673 51.3916 46.8903 50.0822 47.3711 49.4889C47.6473 49.1411 47.9746 48.7319 48.3224 48.2716C48.3224 48.3125 48.3224 48.3637 48.3224 48.4046C48.3224 49.9697 46.8085 51.0233 46.1333 51.4529ZM53.6213 49.7446C53.4474 49.6219 53.4781 49.2127 54.0611 47.934C54.2862 47.4328 54.8181 46.594 55.7285 45.7858C55.8308 46.1132 55.9024 46.4303 55.8922 46.7269C55.882 48.7012 54.4703 49.4377 53.6213 49.7446Z" fill="#CD6799"/>
</svg>
