<svg width="80" height="80" viewBox="0 0 80 80" fill="none" xmlns="http://www.w3.org/2000/svg">
<circle cx="40" cy="40" r="40" fill="black"/>
<path d="M40.1667 23C32.3889 23 27.5278 26.8889 25.5833 34.6667C28.5 30.7778 31.9028 29.3194 35.7917 30.2917C38.0105 30.8464 39.5964 32.456 41.3518 34.2379C44.2114 37.1405 47.5211 40.5 54.75 40.5C62.5278 40.5 67.3889 36.6111 69.3333 28.8333C66.4167 32.7222 63.0139 34.1806 59.125 33.2083C56.9062 32.6536 55.3203 31.044 53.5649 29.2621C50.7052 26.3595 47.3956 23 40.1667 23ZM25.5833 40.5C17.8056 40.5 12.9444 44.3889 11 52.1667C13.9167 48.2778 17.3194 46.8194 21.2083 47.7917C23.4272 48.3464 25.0131 49.956 26.7685 51.7379C29.6281 54.6405 32.9378 58 40.1667 58C47.9444 58 52.8056 54.1111 54.75 46.3333C51.8333 50.2222 48.4306 51.6806 44.5417 50.7083C42.3228 50.1536 40.7369 48.544 38.9815 46.7621C36.1219 43.8595 32.8122 40.5 25.5833 40.5Z" fill="url(#paint0_linear_117:108)"/>
<defs>
<linearGradient id="paint0_linear_117:108" x1="9.37963" y1="34.2" x2="59.76" y2="63.2482" gradientUnits="userSpaceOnUse">
<stop stop-color="#2298BD"/>
<stop offset="1" stop-color="#0ED7B5"/>
</linearGradient>
</defs>
</svg>
