<svg width="80" height="80" viewBox="0 0 80 80" fill="none" xmlns="http://www.w3.org/2000/svg">
<circle cx="40" cy="40" r="40" fill="black"/>
<path d="M53.9672 27.2515C55.4349 27.5891 56.7686 28.3488 57.7999 29.4349C58.368 30.0227 58.8613 30.677 59.2689 31.3831C59.2878 31.4598 56.6241 33.229 55.0086 34.2159C54.95 34.2551 54.7172 34.0046 54.4534 33.6194C54.1583 33.1179 53.7394 32.6985 53.2359 32.4004C52.7324 32.1024 52.1607 31.9353 51.5742 31.9149C49.7173 31.7888 48.5208 32.7501 48.5294 34.3574C48.5134 34.7523 48.6045 35.1442 48.7932 35.4926C49.2018 36.3277 49.9604 36.8288 52.3431 37.8498C56.7293 39.7162 58.612 40.9468 59.774 42.6956C60.4309 43.8005 60.8354 45.034 60.9593 46.3098C61.0832 47.5855 60.9234 48.8726 60.4912 50.0809C59.8973 51.406 58.9553 52.5498 57.7632 53.3935C56.5712 54.2372 55.1724 54.7501 53.7121 54.879C52.1598 55.055 50.5914 55.039 49.0432 54.8312C46.6717 54.446 44.4871 53.3208 42.8089 51.6201C42.1747 50.9142 41.6379 50.1284 41.2123 49.2833C41.3913 49.1517 41.5797 49.0332 41.7761 48.9287C42.0485 48.7753 43.0795 48.189 44.0519 47.6316L45.8174 46.609L46.1864 47.1408C46.8078 48.0193 47.5988 48.7677 48.5139 49.3429C49.4381 49.844 50.4849 50.0815 51.5376 50.0289C52.5903 49.9762 53.6076 49.6354 54.4759 49.0446C54.9237 48.6131 55.2037 48.0395 55.2668 47.4243C55.3298 46.8091 55.1719 46.1917 54.8207 45.6801C54.3448 45.0068 53.3724 44.4409 50.6087 43.2563C48.4416 42.5339 46.4677 41.3365 44.8347 39.7537C44.057 38.8775 43.4826 37.8437 43.1519 36.7249C42.9074 35.4502 42.8713 34.1451 43.0451 32.8592C43.3695 31.3794 44.1462 30.0341 45.27 29.0054C46.3939 27.9767 47.8104 27.3145 49.3277 27.1084C50.8727 26.9258 52.4367 26.9741 53.9672 27.2515ZM39.5831 29.7792L39.602 32.2575H31.6194V54.6676H25.9902V32.2626H18.0076V29.8287C17.9864 28.9951 18.0094 28.1611 18.0766 27.3299C18.1059 27.2907 22.9593 27.272 28.8436 27.2822L39.552 27.3112L39.5831 29.7792Z" fill="#17A2FF"/>
</svg>
