<svg width="48" height="33" viewBox="0 0 48 33" fill="none" xmlns="http://www.w3.org/2000/svg">
<path fill-rule="evenodd" clip-rule="evenodd" d="M0.0625 31.9137V0.5H14.5845C19.249 0.5 23.0304 4.28133 23.0304 8.94583C23.0304 11.9099 22.1189 13.746 18.7771 15.6296C22.7761 17.4517 23.8868 19.9771 23.8868 23.4997C23.8868 28.2649 19.6535 31.9137 14.8883 31.9137H0.0625ZM6.20759 5.7V13.2538H13.3998C13.3998 13.2538 16.8954 13.2538 16.8954 9.47691C16.8954 5.7 13.3998 5.7 13.3998 5.7H6.20759ZM6.20759 26.5936V18.437H13.9221C15.1677 18.437 17.7794 19.0799 17.7794 22.9372C17.7794 25.798 15.2079 26.5668 13.9221 26.5936H6.20759Z" fill="white"/>
<path fill-rule="evenodd" clip-rule="evenodd" d="M37.0256 9.15547C32.6058 9.15547 26.0565 12.3297 26.0565 20.7675C26.0565 25.9053 28.8691 32.5 37.3068 32.5C44.0571 32.5 47.1643 27.5445 47.8742 25.0667H41.5257C41.2043 26.1918 39.9587 27.4373 37.3068 27.4373C33.4496 27.4373 32.0835 24.1426 31.8826 22.4952H47.8742V20.7675C47.8742 12.3297 41.4454 9.15547 37.0256 9.15547ZM37.0256 13.9771C33.4255 13.9771 32.0968 16.9504 31.8826 18.437H41.5257C41.5257 16.9504 40.6257 13.9771 37.0256 13.9771Z" fill="white"/>
<path d="M29.3512 2.28471V6.18216H44.499V2.28471H29.3512Z" fill="white"/>
</svg>
