<svg width="39" height="39" viewBox="0 0 39 39" fill="none" xmlns="http://www.w3.org/2000/svg">
<path d="M38.9014 13.427C38.8927 13.381 38.885 13.3349 38.8727 13.2899C38.8651 13.2628 38.8559 13.2372 38.8472 13.2106C38.8344 13.1707 38.8211 13.1308 38.8052 13.0919C38.7939 13.0647 38.7811 13.0386 38.7689 13.0125C38.7515 12.9757 38.7335 12.9394 38.7131 12.9041C38.6987 12.878 38.6824 12.8534 38.6665 12.8283C38.6445 12.7945 38.622 12.7613 38.5974 12.729C38.5795 12.705 38.5611 12.682 38.5416 12.6589C38.5161 12.6282 38.4884 12.5991 38.4608 12.5704C38.4393 12.5489 38.4178 12.5274 38.3953 12.5064C38.3656 12.4793 38.3349 12.4537 38.3027 12.4292C38.2781 12.4102 38.2541 12.3908 38.2285 12.3734C38.2193 12.3667 38.2111 12.3591 38.2013 12.3529L20.8351 0.774418C20.2871 0.408527 19.5722 0.408527 19.0241 0.774418L1.65686 12.3524C1.64714 12.3585 1.63946 12.3662 1.62974 12.3729C1.60415 12.3908 1.5801 12.4097 1.55554 12.4287C1.52381 12.4537 1.4926 12.4793 1.46291 12.5054C1.4404 12.5259 1.41891 12.5474 1.39792 12.5694C1.36927 12.598 1.34266 12.6272 1.31656 12.6579C1.29711 12.6809 1.27869 12.704 1.26078 12.7296C1.23622 12.7618 1.2137 12.7945 1.1917 12.8288C1.17583 12.8539 1.15997 12.8785 1.14513 12.9046C1.12466 12.9399 1.10675 12.9762 1.08986 13.012C1.07758 13.0381 1.06427 13.0647 1.05353 13.0914C1.03766 13.1302 1.02385 13.1702 1.01105 13.2101C1.00235 13.2367 0.993143 13.2628 0.985978 13.2868C0.974208 13.3319 0.965509 13.3774 0.957321 13.424C0.952716 13.4475 0.947086 13.4705 0.944016 13.4946C0.934805 13.5652 0.929688 13.6358 0.929688 13.708V25.2885C0.929688 25.3602 0.934805 25.4318 0.94504 25.5019C0.948622 25.5275 0.955274 25.548 0.960392 25.5725C0.968579 25.6186 0.975744 25.6647 0.991096 25.7107C0.99826 25.7363 1.00645 25.7619 1.01668 25.79C1.02948 25.831 1.04227 25.8719 1.05762 25.9093C1.06837 25.9349 1.08321 25.9604 1.09344 25.986C1.11033 26.0219 1.12926 26.0577 1.14973 26.095C1.16406 26.1206 1.18044 26.1462 1.19579 26.1697C1.21779 26.2056 1.24185 26.2363 1.26743 26.267C1.28534 26.2926 1.30325 26.313 1.32372 26.3376C1.34982 26.3683 1.3749 26.399 1.4056 26.4261C1.42658 26.4466 1.44654 26.4722 1.47213 26.4875C1.50181 26.5131 1.53353 26.5387 1.56424 26.5653C1.5888 26.5858 1.61541 26.6011 1.63588 26.6211C1.6456 26.6262 1.65123 26.6364 1.66147 26.6411L19.0241 38.2252C19.2984 38.4094 19.6126 38.5015 19.9299 38.5C20.2471 38.4984 20.5614 38.4079 20.8356 38.2252L38.2029 26.6472C38.2126 26.6411 38.2208 26.6339 38.23 26.6272C38.2556 26.6093 38.2796 26.5904 38.3042 26.5715C38.3359 26.5464 38.3671 26.5203 38.3968 26.4937C38.4193 26.4737 38.4408 26.4517 38.4623 26.4302C38.4905 26.4016 38.5176 26.3724 38.5432 26.3417C38.5626 26.3187 38.5811 26.2956 38.599 26.2711C38.6235 26.2388 38.646 26.2056 38.668 26.1718C38.6839 26.1472 38.6998 26.1222 38.7146 26.0971C38.7351 26.0613 38.753 26.0249 38.7704 25.9881C38.7827 25.962 38.7955 25.9359 38.8067 25.9093C38.8226 25.8699 38.8359 25.83 38.8487 25.79C38.8574 25.7634 38.8666 25.7373 38.8743 25.7107C38.886 25.6657 38.8942 25.6196 38.9029 25.5736C38.907 25.55 38.9132 25.527 38.9157 25.503C38.9249 25.4323 38.9301 25.3617 38.9301 25.2896V13.7111C38.9301 13.6389 38.9244 13.5683 38.9157 13.4977C38.9116 13.4726 38.904 13.4521 38.8988 13.427H38.9014ZM19.9294 23.3629L14.1544 19.5003L19.9294 15.6372L25.7048 19.5003L19.9294 23.3629ZM18.2969 12.8007L11.2176 17.5358L5.50306 13.7131L18.2969 5.18403V12.8007ZM8.28075 19.4998L4.19609 22.2319V16.7676L8.28075 19.4998ZM11.2176 21.4659L18.2969 26.2004V33.8171L5.50306 25.287L11.2176 21.4649V21.4659ZM21.5623 26.1994L28.6416 21.4649L34.3567 25.287L21.5623 33.8161V26.1994ZM31.5785 19.5008L35.6637 16.7682V22.233L31.5785 19.4998V19.5008ZM28.6416 17.5358L21.5623 12.8012V5.18403L34.3567 13.7131L28.6416 17.5358Z" fill="white"/>
</svg>
