<svg width="44" height="43" viewBox="0 0 44 43" fill="none" xmlns="http://www.w3.org/2000/svg">
<path d="M21.538 1.42944C32.6369 1.42944 41.617 10.4095 41.617 21.4916C41.617 32.5738 32.6369 41.5706 21.538 41.5706C10.439 41.5706 1.45898 32.5906 1.45898 21.5084C1.45898 10.4263 10.439 1.42944 21.538 1.42944Z" fill="white"/>
<path d="M21.5379 43C9.66541 43 0.0126953 33.3641 0.0126953 21.5084C0.0126953 9.6359 9.66541 0 21.5379 0C33.4104 0 43.0631 9.6359 43.0631 21.4916C43.0631 33.3473 33.4104 43 21.5379 43ZM39.683 24.4345C39.0608 24.2327 33.999 22.736 28.2309 23.6441C30.6357 30.2362 31.6111 35.6175 31.796 36.7274C35.9329 33.9527 38.8758 29.5467 39.683 24.4345ZM28.7186 38.4259C28.4495 36.8115 27.3733 31.1948 24.8003 24.5018C24.7667 24.5186 24.7163 24.5354 24.6826 24.5354C14.3068 28.151 10.5903 35.3316 10.254 36.0043C13.3651 38.4259 17.2833 39.8721 21.5379 39.8721C24.0772 39.8889 26.5156 39.3676 28.7186 38.4259ZM7.88286 33.8013C8.30327 33.095 13.3482 24.754 22.8328 21.6766C23.0682 21.5925 23.3205 21.5252 23.5559 21.458C23.1019 20.4153 22.5974 19.3727 22.0592 18.3469C12.8774 21.088 3.96459 20.9703 3.1574 20.9535C3.1574 21.1384 3.14058 21.3234 3.14058 21.5084C3.1574 26.2339 4.93995 30.5389 7.88286 33.8013ZM3.54418 17.7583C4.36819 17.7751 11.9357 17.8088 20.5457 15.5217C17.5019 10.1068 14.2059 5.56629 13.735 4.91044C8.57234 7.33203 4.73816 12.0743 3.54418 17.7583ZM17.2329 3.66601C17.7374 4.33868 21.0839 8.87915 24.094 14.4118C30.6357 11.9566 33.3936 8.25694 33.7299 7.78608C30.4843 4.91044 26.2129 3.16152 21.5379 3.16152C20.0581 3.16152 18.6118 3.3465 17.2329 3.66601ZM35.7648 9.90497C35.378 10.4263 32.3005 14.3782 25.5066 17.1529C25.9271 18.0274 26.3475 18.9187 26.7342 19.8099C26.8688 20.1294 27.0033 20.449 27.1378 20.7517C33.2591 19.9781 39.3299 21.2225 39.9353 21.3402C39.8848 17.0184 38.3377 13.0329 35.7648 9.90497Z" fill="#1F1F47"/>
</svg>
