<svg width="42" height="41" viewBox="0 0 42 41" fill="none" xmlns="http://www.w3.org/2000/svg">
<path d="M20.5063 0.5C9.18249 0.5 0 9.68079 0 21.0063C0 30.0666 5.87569 37.7532 14.0235 40.4648C15.0483 40.6546 15.4246 40.0199 15.4246 39.4783C15.4246 38.9893 15.4056 37.3739 15.3967 35.6604C9.69185 36.9009 8.48806 33.2409 8.48806 33.2409C7.55524 30.8707 6.21119 30.2404 6.21119 30.2404C4.35065 28.9677 6.35144 28.9939 6.35144 28.9939C8.41063 29.1385 9.4949 31.107 9.4949 31.107C11.3239 34.242 14.2921 33.3357 15.4623 32.8117C15.6463 31.4864 16.1778 30.5817 16.7642 30.0696C12.2095 29.5511 7.42144 27.7928 7.42144 19.9353C7.42144 17.6965 8.22251 15.8672 9.53429 14.4311C9.32138 13.9146 8.61947 11.829 9.73294 9.00435C9.73294 9.00435 11.4549 8.45322 15.3736 11.1063C17.0094 10.652 18.7636 10.4241 20.5063 10.4163C22.2491 10.4241 24.0047 10.652 25.6435 11.1063C29.5574 8.45322 31.277 9.00435 31.277 9.00435C32.3932 11.829 31.691 13.9146 31.4781 14.4311C32.7929 15.8672 33.5885 17.6965 33.5885 19.9353C33.5885 27.8115 28.7913 29.5457 24.2251 30.0533C24.9606 30.6897 25.616 31.9377 25.616 33.8508C25.616 36.5946 25.5922 38.8029 25.5922 39.4783C25.5922 40.024 25.9613 40.6634 27.0007 40.462C35.1441 37.7475 41.0124 30.0635 41.0124 21.0063C41.0124 9.68079 31.8312 0.5 20.5063 0.5ZM7.68029 29.7117C7.63513 29.8136 7.47485 29.8442 7.32883 29.7742C7.1801 29.7073 7.09656 29.5684 7.14478 29.4662C7.18893 29.3613 7.34955 29.3321 7.49794 29.4024C7.64702 29.4693 7.73191 29.6095 7.68029 29.7117ZM8.68898 30.6118C8.59118 30.7024 8.4 30.6603 8.27028 30.517C8.13615 30.3741 8.11102 30.1829 8.21018 30.0909C8.31103 30.0002 8.49644 30.0426 8.63091 30.1856C8.76504 30.3302 8.79119 30.5201 8.68898 30.6118ZM9.38097 31.7633C9.25533 31.8506 9.04989 31.7688 8.92289 31.5864C8.79724 31.4041 8.79724 31.1854 8.9256 31.0978C9.05294 31.0101 9.25533 31.0889 9.38403 31.2699C9.50933 31.4553 9.50933 31.674 9.38097 31.7633ZM10.5513 33.097C10.4389 33.2209 10.1995 33.1877 10.0243 33.0186C9.84497 32.8532 9.79505 32.6185 9.90779 32.4946C10.0215 32.3703 10.2623 32.4053 10.4389 32.573C10.6168 32.7381 10.6712 32.9744 10.5513 33.097ZM12.0638 33.5472C12.0142 33.7079 11.7837 33.7809 11.5514 33.7126C11.3195 33.6423 11.1677 33.4542 11.2145 33.2919C11.2627 33.1302 11.4943 33.0542 11.7283 33.1272C11.9599 33.1971 12.112 33.3839 12.0638 33.5472ZM13.7851 33.7382C13.7909 33.9073 13.5939 34.0476 13.3501 34.0506C13.1049 34.0561 12.9066 33.9192 12.9039 33.7528C12.9039 33.582 13.0964 33.4431 13.3416 33.439C13.5854 33.4343 13.7851 33.5701 13.7851 33.7382ZM15.4761 33.6734C15.5053 33.8384 15.3359 34.0079 15.0937 34.053C14.8557 34.0965 14.6353 33.9946 14.6051 33.831C14.5755 33.6618 14.748 33.4924 14.9858 33.4486C15.2282 33.4065 15.4452 33.5056 15.4761 33.6734Z" fill="white"/>
</svg>
