<svg width="37" height="37" viewBox="0 0 37 37" fill="none" xmlns="http://www.w3.org/2000/svg">
<path d="M18.9028 0.517351C11.5188 0.517351 4.50701 -0.137983 1.82876 6.7197C0.722484 9.55204 0.883138 13.2304 0.883138 18.4975C0.883138 23.1193 0.734686 27.4632 1.82876 30.2732C4.50091 37.1349 11.5697 36.4776 18.8988 36.4776C25.9696 36.4776 33.26 37.212 35.9708 30.2732C37.0791 27.4125 36.9164 23.7888 36.9164 18.4975C36.9164 11.4734 37.3048 6.93882 33.8904 3.53433C30.4333 0.0851955 25.7581 0.517351 18.8947 0.517351H18.9028ZM17.2882 3.75751C32.6906 3.73316 34.651 2.02483 33.5691 25.7569C33.1848 34.1504 26.779 33.2293 18.9049 33.2293C4.54768 33.2293 4.13486 32.8195 4.13486 18.4893C4.13486 3.99286 5.27367 3.76562 17.2882 3.75345V3.75751ZM28.5217 6.74202C27.328 6.74202 26.36 7.70777 26.36 8.89874C26.36 10.0897 27.328 11.0555 28.5217 11.0555C29.7155 11.0555 30.6835 10.0897 30.6835 8.89874C30.6835 7.70777 29.7155 6.74202 28.5217 6.74202ZM18.9028 9.26394C13.7924 9.26394 9.64997 13.3988 9.64997 18.4975C9.64997 23.5961 13.7924 27.729 18.9028 27.729C24.0133 27.729 28.1537 23.5961 28.1537 18.4975C28.1537 13.3988 24.0133 9.26394 18.9028 9.26394ZM18.9028 12.5041C26.844 12.5041 26.8542 24.4908 18.9028 24.4908C10.9637 24.4908 10.9515 12.5041 18.9028 12.5041Z" fill="white"/>
</svg>
