<svg width="39" height="39" viewBox="0 0 39 39" fill="none" xmlns="http://www.w3.org/2000/svg">
<path d="M32.4403 32.8784H26.8099V24.0608C26.8099 21.9581 26.7724 19.2513 23.8815 19.2513C20.949 19.2513 20.5003 21.5423 20.5003 23.9077V32.8778H14.8699V14.7452H20.2751V17.2232H20.3507C21.4529 15.3387 23.5022 14.2131 25.6838 14.2941C31.3905 14.2941 32.4426 18.0478 32.4426 22.9311L32.4403 32.8784ZM8.51692 12.2665C6.71238 12.2669 5.24925 10.8042 5.24893 8.99966C5.24861 7.19509 6.71121 5.73193 8.51574 5.73161C10.3203 5.73128 11.7834 7.19392 11.7837 8.99849C11.7839 9.86508 11.4398 10.6962 10.8271 11.3091C10.2145 11.922 9.38348 12.2664 8.51692 12.2665ZM11.3321 32.8784H5.69584V14.7452H11.3321V32.8784ZM35.2473 0.502833H2.86656C1.33618 0.485563 0.0811775 1.71146 0.0625 3.24185V35.7576C0.080538 37.2887 1.33544 38.5158 2.86656 38.4998H35.2473C36.7814 38.5188 38.0413 37.2918 38.0625 35.7576V3.23951C38.0406 1.70609 36.7807 0.480263 35.2473 0.500241" fill="white"/>
</svg>
