<svg width="372" height="378" viewBox="0 0 372 378" fill="none" xmlns="http://www.w3.org/2000/svg">
<path d="M360.31 354.93L185.69 0L11.08 354.93L0 377.45H64H64.26L64.52 376.91C95.13 345.15 138.1 325.39 185.69 325.39C233.28 325.39 276.25 345.15 306.86 376.91L307.12 377.45H307.38H371.38L360.31 354.93ZM315.82 362.33L203.55 131.88L195.29 149.19L290.19 342.89C259.77 321.68 223.69 310.27 185.69 310.27C137.35 310.27 92.12 328.71 57.69 362.33H24.29L185.69 34.25L347.09 362.33H315.82Z" fill="#F7F7F8"/>
<path d="M194.23 112.73L185.7 95.22L80.1504 310.64L115.27 298C137.81 289.88 161.51 285.77 185.69 285.77C207.95 285.77 229.8 289.27 250.71 296.15L241.7 277.76C223.8 273.13 205.03 270.65 185.69 270.65C159.17 270.65 133.74 275.28 110.15 283.77L194.23 112.73Z" fill="#F7F7F8"/>
</svg>
