<svg width="50" height="50" viewBox="0 0 50 50" fill="none" xmlns="http://www.w3.org/2000/svg">
<circle cx="25" cy="25" r="25" fill="#575757" fill-opacity="0.26"/>
<circle cx="25" cy="25" r="24.5" stroke="white" stroke-opacity="0.4"/>
<path d="M23.8982 12.4628L12.4612 23.8905C11.8463 24.5049 11.8463 25.4972 12.4612 26.1116L23.8982 37.5392C24.5131 38.1536 25.5062 38.1536 26.1211 37.5392L30.9165 32.7478C31.4672 32.1976 31.4672 31.3055 30.9165 30.7553C30.3658 30.2051 29.473 30.2051 28.9224 30.7553L25.287 34.3876C25.134 34.5405 24.9017 34.5405 24.7487 34.3876L15.6153 25.2618C15.4623 25.1089 15.4623 24.8768 15.6153 24.7239L24.7487 15.5981C24.9017 15.4452 25.134 15.4452 25.287 15.5981L28.9224 19.2305C29.473 19.7807 30.3658 19.7807 30.9165 19.2305C31.4672 18.6803 31.4672 17.7882 30.9165 17.238L26.1216 12.447C25.5042 11.846 24.5107 11.8508 23.8982 12.4628Z" fill="url(#paint0_linear_259:213)"/>
<path d="M23.8982 12.4628L12.4612 23.8905C11.8463 24.5049 11.8463 25.4972 12.4612 26.1116L23.8982 37.5392C24.5131 38.1536 25.5062 38.1536 26.1211 37.5392L30.9165 32.7478C31.4672 32.1976 31.4672 31.3055 30.9165 30.7553C30.3658 30.2051 29.473 30.2051 28.9224 30.7553L25.287 34.3876C25.134 34.5405 24.9017 34.5405 24.7487 34.3876L15.6153 25.2618C15.4623 25.1089 15.4623 24.8768 15.6153 24.7239L24.7487 15.5981C25.1297 15.2696 25.7515 14.6042 26.6645 14.4486C27.3431 14.3329 28.0849 14.5875 28.8901 15.2122C28.3518 14.6744 27.429 13.7527 26.1216 12.447C25.5042 11.846 24.5107 11.8508 23.8982 12.4628Z" fill="url(#paint1_linear_259:213)"/>
<path d="M32.0238 29.6925C32.5745 30.2427 33.4673 30.2427 34.0179 29.6925L37.5553 26.1581C38.1701 25.5437 38.1701 24.5514 37.5553 23.9371L33.9872 20.3846C33.4352 19.835 32.5421 19.8358 31.9911 20.3863C31.4405 20.9365 31.4405 21.8286 31.9911 22.3788L34.4011 24.7868C34.5541 24.9397 34.5541 25.1718 34.4011 25.3247L32.0238 27.7C31.4731 28.2502 31.4731 29.1423 32.0238 29.6925Z" fill="url(#paint2_linear_259:213)"/>
<path d="M25.0665 28.1436C26.772 28.1436 28.1545 26.7622 28.1545 25.0582C28.1545 23.3541 26.772 21.9727 25.0665 21.9727C23.3611 21.9727 21.9785 23.3541 21.9785 25.0582C21.9785 26.7622 23.3611 28.1436 25.0665 28.1436Z" fill="url(#paint3_linear_259:213)"/>
<defs>
<linearGradient id="paint0_linear_259:213" x1="24.0041" y1="12" x2="34.8726" y2="18.6372" gradientUnits="userSpaceOnUse">
<stop stop-color="#4285EB"/>
<stop offset="1" stop-color="#2EC7FF"/>
</linearGradient>
<linearGradient id="paint1_linear_259:213" x1="25.4619" y1="12" x2="20.0938" y2="39.7436" gradientUnits="userSpaceOnUse">
<stop stop-color="#29CDFF"/>
<stop offset="0.378601" stop-color="#148EFF"/>
<stop offset="1" stop-color="#0A60FF"/>
</linearGradient>
<linearGradient id="paint2_linear_259:213" x1="36.065" y1="18.6583" x2="29.0804" y2="29.5818" gradientUnits="userSpaceOnUse">
<stop stop-color="#FA816E"/>
<stop offset="0.414726" stop-color="#F74A5C"/>
<stop offset="1" stop-color="#F51D2C"/>
</linearGradient>
<linearGradient id="paint3_linear_259:213" x1="26.1861" y1="19.7703" x2="23.8621" y2="29.0667" gradientUnits="userSpaceOnUse">
<stop stop-color="#FA8E7D"/>
<stop offset="0.512635" stop-color="#F74A5C"/>
<stop offset="1" stop-color="#F51D2C"/>
</linearGradient>
</defs>
</svg>
