<svg width="32" height="30" viewBox="0 0 32 30" fill="none" xmlns="http://www.w3.org/2000/svg">
<path d="M6.92208 28.6737L17.3492 22.6004H14.0992L6.63379 26.1258L6.92208 28.6737Z" fill="white"/>
<path d="M17.348 22.6004V23.9268L6.9209 30V28.4027L17.348 22.6004Z" fill="#FAFAFA"/>
<path d="M0 30H6.92168L17.6942 11.2193L17.3548 0L0 30Z" fill="#FAFAFA"/>
<path d="M17.3037 11.8989L17.3557 0L31.1808 23.9467H24.2427L17.3037 11.8989Z" fill="white"/>
<path d="M17.3535 0V2.41977L26.0136 15L17.3535 0Z" fill="#FAFAFA"/>
<path d="M17.3662 0V2.41977L8.70605 15L17.3662 0Z" fill="#FAFAFA"/>
<path d="M15.3262 20.2161H17.3027V16.7921L15.3262 20.2161Z" fill="white"/>
<path d="M17.3037 16.7921V20.2161H19.2811L17.3037 16.7921Z" fill="#FAFAFA"/>
</svg>
