<svg width="50" height="50" viewBox="0 0 50 50" fill="none" xmlns="http://www.w3.org/2000/svg">
<circle cx="25" cy="25" r="25" fill="#575757" fill-opacity="0.26"/>
<circle cx="25" cy="25" r="24.5" stroke="white" stroke-opacity="0.4"/>
<path d="M38.5 26.5C38.5 33.1469 33.3322 38.5 27 38.5C20.6678 38.5 15.5 33.1469 15.5 26.5C15.5 19.8531 20.6678 14.5 27 14.5C33.3322 14.5 38.5 19.8531 38.5 26.5Z" fill="white" stroke="white"/>
<path d="M24.0176 10.0081C23.9531 10.0139 23.7478 10.0345 23.563 10.0491C19.3021 10.4332 15.3109 12.732 12.783 16.2652C11.3754 18.2297 10.4751 20.4582 10.1349 22.8185C10.0147 23.6424 10 23.8858 10 25.0029C10 26.1201 10.0147 26.3634 10.1349 27.1874C10.9501 32.82 14.9589 37.5524 20.3959 39.3058C21.3695 39.6196 22.3959 39.8336 23.563 39.9626C24.0176 40.0125 25.9824 40.0125 26.437 39.9626C28.4516 39.7398 30.1584 39.2413 31.8416 38.3822C32.0997 38.2503 32.1496 38.2151 32.1144 38.1858C32.0909 38.1682 30.9912 36.6933 29.6716 34.9106L27.2727 31.6706L24.2669 27.2226C22.6129 24.7772 21.2522 22.7775 21.2405 22.7775C21.2287 22.7745 21.217 24.7508 21.2111 27.1639C21.2023 31.3891 21.1994 31.5592 21.1466 31.6589C21.0704 31.8025 21.0117 31.8612 20.8886 31.9257C20.7947 31.9726 20.7126 31.9814 20.2698 31.9814H19.7625L19.6276 31.8964C19.5396 31.8406 19.4751 31.7673 19.4311 31.6823L19.3695 31.5504L19.3754 25.6715L19.3842 19.7896L19.4751 19.6753C19.522 19.6137 19.6217 19.5345 19.6921 19.4964C19.8123 19.4378 19.8592 19.4319 20.3666 19.4319C20.9648 19.4319 21.0645 19.4554 21.2199 19.6254C21.2639 19.6723 22.8915 22.1236 24.8387 25.0762C26.7859 28.0289 29.4487 32.0606 30.7566 34.0397L33.132 37.6374L33.2522 37.5583C34.3167 36.8663 35.4428 35.8811 36.3343 34.8549C38.2317 32.6763 39.4545 30.0198 39.8651 27.1874C39.9853 26.3634 40 26.1201 40 25.0029C40 23.8858 39.9853 23.6424 39.8651 22.8185C39.0499 17.1859 35.0411 12.4535 29.6041 10.7001C28.6452 10.3892 27.6246 10.1752 26.4809 10.0462C26.1994 10.0169 24.261 9.98462 24.0176 10.0081ZM30.1584 19.0801C30.2991 19.1504 30.4135 19.2853 30.4545 19.426C30.478 19.5023 30.4839 21.1325 30.478 24.8065L30.4692 30.0784L29.5396 28.6534L28.607 27.2284V23.3961C28.607 20.9185 28.6188 19.5257 28.6364 19.4583C28.6833 19.2941 28.7859 19.1651 28.9267 19.0889C29.0469 19.0273 29.0909 19.0214 29.5513 19.0214C29.9853 19.0214 30.0616 19.0273 30.1584 19.0801Z" fill="black" fill-opacity="0.9"/>
</svg>
