<svg width="50" height="50" viewBox="0 0 50 50" fill="none" xmlns="http://www.w3.org/2000/svg">
<circle cx="25" cy="25" r="25" fill="#575757" fill-opacity="0.26"/>
<circle cx="25" cy="25" r="24.5" stroke="white" stroke-opacity="0.4"/>
<path d="M34.6988 20.6253C34.3965 20.5213 34.0833 20.4228 33.7608 20.3297C33.8138 20.1134 33.8624 19.8998 33.9057 19.6899C34.6158 16.2431 34.1515 13.4664 32.5661 12.5522C31.046 11.6755 28.5599 12.5896 26.0491 14.7746C25.8076 14.9848 25.5655 15.2072 25.3235 15.4404C25.1622 15.2861 25.0012 15.137 24.8407 14.9945C22.2092 12.658 19.5716 11.6734 17.9879 12.5903C16.4692 13.4694 16.0194 16.0799 16.6586 19.3464C16.7203 19.6619 16.7925 19.9841 16.874 20.3117C16.5007 20.4177 16.1404 20.5306 15.7955 20.6508C12.7105 21.7264 10.7402 23.4121 10.7402 25.1606C10.7402 26.9665 12.8553 28.7779 16.0686 29.8762C16.3222 29.9628 16.5853 30.0448 16.8565 30.1226C16.7685 30.4769 16.6919 30.8241 16.6277 31.1628C16.0182 34.3726 16.4942 36.9214 18.0088 37.795C19.5733 38.6972 22.199 37.7698 24.7557 35.5349C24.9578 35.3583 25.1606 35.1709 25.3637 34.9745C25.6271 35.2281 25.89 35.4681 26.1515 35.6932C28.628 37.8243 31.0739 38.6849 32.5872 37.8088C34.1501 36.904 34.6581 34.1661 33.9986 30.8349C33.9483 30.5805 33.8897 30.3206 33.8238 30.0561C34.0082 30.0015 34.1892 29.9453 34.3658 29.8868C37.7063 28.7799 39.8798 26.9907 39.8798 25.1606C39.8798 23.4058 37.846 21.7087 34.6988 20.6253ZM33.9743 28.7052C33.8149 28.7579 33.6514 28.8089 33.4848 28.8583C33.116 27.6908 32.6183 26.4494 32.0092 25.1667C32.5905 23.9146 33.0689 22.689 33.4274 21.5291C33.7255 21.6154 34.0148 21.7063 34.2936 21.8023C36.9901 22.7306 38.635 24.1031 38.635 25.1606C38.635 26.2871 36.8586 27.7494 33.9743 28.7052ZM32.7774 31.0767C33.0691 32.5497 33.1107 33.8814 32.9175 34.9225C32.744 35.858 32.395 36.4817 31.9634 36.7315C31.0451 37.2631 29.0813 36.5721 26.9634 34.7496C26.7206 34.5407 26.476 34.3176 26.2307 34.0815C27.0517 33.1835 27.8723 32.1395 28.6732 30.9801C30.0819 30.8551 31.4128 30.6508 32.6197 30.3718C32.6792 30.6116 32.732 30.8467 32.7774 31.0767ZM20.6746 36.6397C19.7774 36.9565 19.0628 36.9656 18.6308 36.7165C17.7117 36.1864 17.3295 34.14 17.8508 31.3949C17.9105 31.0805 17.9815 30.7576 18.0634 30.4275C19.2571 30.6915 20.5782 30.8814 21.9903 30.9959C22.7966 32.1304 23.6409 33.1732 24.4917 34.0863C24.3058 34.2658 24.1207 34.4366 23.9365 34.5976C22.806 35.5859 21.673 36.287 20.6746 36.6397ZM16.4712 28.6983C15.0504 28.2126 13.877 27.5814 13.0726 26.8927C12.3499 26.2737 11.985 25.6593 11.985 25.1606C11.985 24.0996 13.5669 22.7462 16.2053 21.8263C16.5254 21.7147 16.8606 21.6095 17.2083 21.5107C17.573 22.6968 18.0513 23.9369 18.6285 25.1909C18.0438 26.4636 17.5587 27.7234 17.1905 28.9235C16.9426 28.8522 16.7024 28.7772 16.4712 28.6983ZM17.8802 19.1073C17.3326 16.3086 17.6963 14.1974 18.6115 13.6676C19.5864 13.1033 21.7421 13.9079 24.0141 15.9253C24.1593 16.0543 24.3051 16.1892 24.4513 16.3289C23.6047 17.238 22.7681 18.2729 21.969 19.4008C20.5985 19.5278 19.2867 19.7318 18.0805 20.0051C18.0047 19.7 17.9375 19.4003 17.8802 19.1073ZM30.4497 22.2111C30.1614 21.713 29.8654 21.2268 29.5636 20.7538C30.4933 20.8713 31.3841 21.0273 32.2206 21.2183C31.9695 22.0231 31.6565 22.8647 31.288 23.7274C31.0237 23.2256 30.7441 22.7196 30.4497 22.2111ZM25.3239 17.2185C25.8981 17.8406 26.4731 18.5351 27.0387 19.2886C26.4687 19.2617 25.8918 19.2477 25.31 19.2477C24.7338 19.2477 24.161 19.2614 23.5946 19.2878C24.1608 18.5413 24.7408 17.8477 25.3239 17.2185ZM20.1653 22.2197C19.8773 22.7191 19.6029 23.2223 19.3427 23.7265C18.9802 22.8668 18.6701 22.0214 18.4168 21.2051C19.2481 21.019 20.1347 20.8669 21.0585 20.7516C20.7525 21.2289 20.4541 21.7189 20.1653 22.2197ZM21.0852 29.6585C20.1307 29.552 19.2308 29.4077 18.3996 29.2268C18.657 28.3959 18.9739 27.5325 19.3441 26.6542C19.6049 27.158 19.8804 27.6615 20.1702 28.162C20.4654 28.6719 20.7712 29.1714 21.0852 29.6585ZM25.3584 33.1905C24.7684 32.554 24.1799 31.8498 23.6051 31.0924C24.1631 31.1143 24.7319 31.1255 25.31 31.1255C25.904 31.1255 26.4911 31.1121 27.069 31.0864C26.5016 31.8574 25.9286 32.5627 25.3584 33.1905ZM31.2999 26.6095C31.6894 27.4972 32.0177 28.3561 32.2784 29.1728C31.4335 29.3656 30.5213 29.5208 29.5602 29.6362C29.8627 29.1568 30.1613 28.6622 30.4547 28.1534C30.7515 27.6387 31.0334 27.1232 31.2999 26.6095ZM29.3764 27.5315C28.9209 28.3213 28.4533 29.0753 27.9785 29.787C27.1138 29.8488 26.2205 29.8806 25.31 29.8806C24.4032 29.8806 23.5211 29.8525 22.6717 29.7973C22.1779 29.0763 21.7 28.3201 21.2474 27.5383C20.796 26.7586 20.3807 25.9724 20.0042 25.1905C20.3806 24.4068 20.795 23.6197 21.2438 22.8414C21.6938 22.0611 22.1673 21.3087 22.6566 20.5922C23.5232 20.5267 24.4119 20.4925 25.31 20.4925C26.2121 20.4925 27.1019 20.527 27.9683 20.593C28.4502 21.3043 28.9205 22.0544 29.3723 22.8348C29.8292 23.6241 30.2489 24.406 30.6285 25.1728C30.2501 25.9529 29.8313 26.7427 29.3764 27.5315ZM31.9443 13.6306C32.9201 14.1933 33.2996 16.4627 32.6865 19.4387C32.6474 19.6286 32.6034 19.822 32.5556 20.018C31.3466 19.739 30.0338 19.5315 28.6594 19.4025C27.8587 18.2623 27.029 17.2257 26.1961 16.3283C26.42 16.1129 26.6436 15.9075 26.8663 15.7137C29.0176 13.8415 31.0283 13.1023 31.9443 13.6306ZM25.31 22.5586C26.7471 22.5586 27.9121 23.7235 27.9121 25.1606C27.9121 26.5977 26.7471 27.7627 25.31 27.7627C23.873 27.7627 22.7079 26.5977 22.7079 25.1606C22.7079 23.7235 23.873 22.5586 25.31 22.5586Z" fill="#00D8FF"/>
</svg>
