<svg width="50" height="50" viewBox="0 0 50 50" fill="none" xmlns="http://www.w3.org/2000/svg">
<circle cx="25" cy="25" r="25" fill="#575757" fill-opacity="0.26"/>
<circle cx="25" cy="25" r="24.5" stroke="white" stroke-opacity="0.4"/>
<path d="M30.4089 30.2078C31.4293 30.1022 32.2034 29.2225 32.1682 28.1669C32.133 27.1113 31.2533 26.2668 30.1977 26.2668H30.1274C29.0366 26.3019 28.1921 27.2168 28.2273 28.3076C28.2625 28.8355 28.4736 29.2929 28.7903 29.6096C27.5939 31.9672 25.7643 33.6914 23.0197 35.134C21.1548 36.1193 19.2196 36.4712 17.2843 36.2249C15.7009 36.0137 14.4694 35.31 13.6953 34.1488C12.5694 32.4246 12.4638 30.5597 13.4138 28.6947C14.0824 27.3576 15.138 26.3723 15.8065 25.8797C15.6658 25.4223 15.4546 24.6481 15.3491 24.0851C10.2471 27.7798 10.7749 32.7765 12.3231 35.134C13.4842 36.8934 15.8417 37.9842 18.4455 37.9842C19.1492 37.9842 19.8529 37.9139 20.5567 37.7379C25.0605 36.8582 28.4736 34.184 30.4089 30.2078ZM36.6017 25.8445C33.9275 22.7128 29.9866 20.9886 25.4828 20.9886H24.9198C24.6031 20.3552 23.9346 19.933 23.1956 19.933H23.1253C22.0345 19.9682 21.19 20.883 21.2252 21.9739C21.2604 23.0295 22.1401 23.874 23.1956 23.874H23.266C24.0401 23.8388 24.7087 23.3462 24.9902 22.6776H25.6235C28.2977 22.6776 30.8311 23.4517 33.1182 24.9648C34.8775 26.126 36.1442 27.6391 36.848 29.4688C37.4461 30.9467 37.4109 32.3894 36.7776 33.621C35.7924 35.4859 34.1386 36.5064 31.9571 36.5064C30.5496 36.5064 29.2125 36.0841 28.5088 35.7674C28.1217 36.1193 27.418 36.6823 26.9254 37.0342C28.4384 37.7379 29.9866 38.125 31.4644 38.125C34.8423 38.125 37.3406 36.2601 38.2906 34.3951C39.311 32.3542 39.2406 28.8355 36.6017 25.8445ZM18.727 30.806C18.7622 31.8616 19.6418 32.7061 20.6974 32.7061H20.7678C21.8586 32.6709 22.703 31.756 22.6679 30.6652C22.6327 29.6096 21.753 28.7651 20.6974 28.7651H20.627C20.5567 28.7651 20.4511 28.7651 20.3807 28.8003C18.9381 26.4075 18.3399 23.8036 18.551 20.9886C18.6918 18.8773 19.3955 17.0476 20.627 15.5345C21.6474 14.2326 23.6179 13.5992 24.955 13.564C28.6847 13.4936 30.2681 18.1384 30.3737 20.0034C30.8311 20.1089 31.6052 20.3552 32.133 20.5312C31.7108 14.8308 28.1921 11.875 24.8142 11.875C21.6474 11.875 18.727 14.1622 17.5658 17.5402C15.9472 22.0442 17.0028 26.3723 18.9733 29.7855C18.7973 30.0318 18.6918 30.4189 18.727 30.806Z" fill="#A06CF2"/>
</svg>
