<svg width="51" height="50" viewBox="0 0 51 50" fill="none" xmlns="http://www.w3.org/2000/svg">
<circle cx="25.4219" cy="25" r="25" fill="#575757" fill-opacity="0.26"/>
<circle cx="25.4219" cy="25" r="24.5" stroke="white" stroke-opacity="0.4"/>
<path d="M39.312 26.3401C38.0909 26.3465 37.0296 26.6406 36.1409 27.0753C35.8148 26.4296 35.4888 25.8542 35.4312 25.4322C35.3673 24.9399 35.2906 24.6395 35.3673 24.0513C35.444 23.4631 35.7893 22.6255 35.7829 22.5616C35.7765 22.4977 35.7061 22.1972 35.0029 22.1908C34.2996 22.1844 33.6922 22.325 33.6219 22.5105C33.5516 22.6959 33.4173 23.1178 33.3278 23.5526C33.2063 24.1919 31.9213 26.4744 31.186 27.6699C30.9495 27.2032 30.7449 26.794 30.7001 26.468C30.6362 25.9757 30.5595 25.6752 30.6362 25.087C30.7129 24.4988 31.0581 23.6613 31.0518 23.5973C31.0454 23.5334 30.975 23.2329 30.2718 23.2265C29.5685 23.2201 28.9611 23.3608 28.8908 23.5462C28.8205 23.7316 28.7437 24.1663 28.5967 24.5883C28.4496 25.0103 26.7426 28.8207 26.2951 29.8053C26.0649 30.3104 25.8667 30.7132 25.7261 30.9881C25.7261 30.9881 25.7197 31.0073 25.7005 31.0392C25.579 31.2758 25.5087 31.4037 25.5087 31.4037C25.5087 31.4037 25.5087 31.4037 25.5087 31.4101C25.4128 31.5827 25.3105 31.7425 25.2593 31.7425C25.221 31.7425 25.1506 31.2822 25.2721 30.6556C25.5279 29.3322 26.1352 27.2735 26.1288 27.2032C26.1288 27.1648 26.2439 26.8068 25.7324 26.6214C25.2338 26.436 25.0547 26.7429 25.01 26.7429C24.9652 26.7429 24.9333 26.8516 24.9333 26.8516C24.9333 26.8516 25.4895 24.5372 23.872 24.5372C22.8618 24.5372 21.4681 25.6432 20.7776 26.6406C20.3428 26.8771 19.4158 27.3822 18.4248 27.9257C18.0476 28.1366 17.6576 28.3476 17.2932 28.5458C17.2676 28.5202 17.242 28.4883 17.2164 28.4627C15.2601 26.3721 11.6414 24.8952 11.7948 22.0885C11.8524 21.0655 12.204 18.3803 18.7445 15.1197C24.1277 12.4664 28.4113 13.2017 29.1529 14.832C30.2142 17.1592 26.8577 21.4811 21.2954 22.1077C19.1728 22.3442 18.0604 21.5259 17.7791 21.219C17.485 20.8993 17.4402 20.8801 17.3315 20.9441C17.1525 21.04 17.2676 21.3277 17.3315 21.4939C17.4978 21.9287 18.1818 22.6959 19.3391 23.0731C20.362 23.4055 22.849 23.5909 25.8603 22.4273C29.2296 21.1231 31.8637 17.498 31.0901 14.4612C30.3165 11.3796 25.2018 10.363 20.362 12.0828C17.485 13.1058 14.365 14.7169 12.1209 16.8139C9.45486 19.3074 9.0329 21.4747 9.20552 22.3826C9.82568 25.6049 14.2691 27.7019 16.0465 29.2555C15.9569 29.3066 15.8738 29.3514 15.8035 29.3897C14.9148 29.8309 11.5263 31.6019 10.6824 33.4751C9.72338 35.5977 10.8358 37.1194 11.5711 37.324C13.8535 37.9569 16.1999 36.8189 17.4594 34.9392C18.7189 33.0596 18.5654 30.6173 17.9837 29.4984C17.9773 29.4856 17.9709 29.4729 17.9581 29.4601C18.1882 29.3258 18.4248 29.1852 18.655 29.0509C19.1089 28.7824 19.5564 28.533 19.94 28.3284C19.7227 28.923 19.5628 29.6327 19.4861 30.6556C19.3902 31.8576 19.8825 33.4176 20.5282 34.0314C20.8159 34.2999 21.1548 34.3063 21.3722 34.3063C22.1266 34.3063 22.4654 33.6797 22.8426 32.9381C23.303 32.0302 23.7185 30.9753 23.7185 30.9753C23.7185 30.9753 23.2007 33.8268 24.6072 33.8268C25.1187 33.8268 25.6365 33.1619 25.8667 32.823C25.8667 32.8294 25.8667 32.8294 25.8667 32.8294C25.8667 32.8294 25.8795 32.8102 25.9051 32.7655C25.9562 32.6823 25.9882 32.6312 25.9882 32.6312C25.9882 32.6312 25.9882 32.6248 25.9882 32.6184C26.1928 32.2604 26.6531 31.4484 27.3372 30.0994C28.2195 28.3604 29.0698 26.1867 29.0698 26.1867C29.0698 26.1867 29.1465 26.7173 29.4086 27.5996C29.5621 28.1175 29.8818 28.6865 30.1375 29.2363C29.9329 29.524 29.805 29.6838 29.805 29.6838C29.805 29.6838 29.805 29.6838 29.8114 29.6902C29.6452 29.9076 29.4662 30.1442 29.268 30.3743C28.5711 31.2055 27.74 32.1581 27.6249 32.433C27.4906 32.7591 27.5226 32.9956 27.7783 33.1874C27.9637 33.3281 28.2962 33.3473 28.635 33.3281C29.2616 33.2833 29.7027 33.1299 29.9201 33.034C30.259 32.9125 30.6554 32.7271 31.0262 32.4522C31.7103 31.9471 32.1258 31.2247 32.0875 30.272C32.0683 29.7478 31.8957 29.2235 31.6847 28.7312C31.7486 28.6417 31.8062 28.5522 31.8701 28.4627C32.9506 26.8835 33.7881 25.1509 33.7881 25.1509C33.7881 25.1509 33.8648 25.6816 34.127 26.5639C34.2548 27.0114 34.517 27.4973 34.7471 27.9704C33.7306 28.7952 33.104 29.7542 32.8803 30.3807C32.4775 31.5443 32.7908 32.0686 33.3853 32.1901C33.6539 32.2476 34.0375 32.1197 34.3188 31.9983C34.6768 31.8832 35.0988 31.685 35.5016 31.3909C36.1856 30.8858 36.8442 30.1825 36.8058 29.2299C36.7866 28.7952 36.6715 28.3668 36.5117 27.9512C37.3748 27.5932 38.4873 27.395 39.9066 27.5612C42.9499 27.9193 43.5508 29.8181 43.4358 30.6173C43.3207 31.4165 42.6813 31.8512 42.4704 31.9855C42.2594 32.1197 42.1891 32.1645 42.2082 32.2604C42.2338 32.401 42.3361 32.3946 42.5151 32.3691C42.7645 32.3243 44.1135 31.7233 44.171 30.2529C44.2669 28.3732 42.4767 26.3209 39.312 26.3401ZM15.8355 34.2551C14.8253 35.3548 13.4188 35.7704 12.8114 35.4187C12.1593 35.0415 12.415 33.4176 13.6553 32.254C14.4097 31.5443 15.3815 30.8858 16.0273 30.483C16.1743 30.3935 16.3917 30.2656 16.6538 30.1058C16.6986 30.0802 16.7242 30.0674 16.7242 30.0674C16.7753 30.0355 16.8264 30.0035 16.8776 29.9715C17.3315 31.6338 16.8968 33.0979 15.8355 34.2551ZM23.1879 29.2555C22.8362 30.1122 22.101 32.3051 21.6535 32.1837C21.2699 32.0814 21.0333 30.4191 21.5767 28.776C21.8517 27.9512 22.4335 26.9667 22.7723 26.583C23.3221 25.9693 23.9295 25.7647 24.0766 26.014C24.262 26.3401 23.4053 28.7184 23.1879 29.2555ZM29.2552 32.1581C29.1082 32.2348 28.9675 32.286 28.9036 32.2476C28.8588 32.222 28.9675 32.1197 28.9675 32.1197C28.9675 32.1197 29.7283 31.3014 30.0288 30.9306C30.2014 30.7132 30.406 30.4574 30.6234 30.1697C30.6234 30.1953 30.6234 30.2273 30.6234 30.2529C30.6234 31.231 29.6772 31.8896 29.2552 32.1581ZM33.9352 31.0904C33.8265 31.0137 33.8457 30.7579 34.2101 29.9588C34.3507 29.6455 34.6832 29.1212 35.2522 28.6161C35.3161 28.8207 35.3609 29.0189 35.3545 29.2043C35.3481 30.4383 34.4658 30.8986 33.9352 31.0904Z" fill="#FF8EC6"/>
</svg>
