<svg width="50" height="50" viewBox="0 0 50 50" fill="none" xmlns="http://www.w3.org/2000/svg">
<circle cx="25" cy="25" r="25" fill="#575757" fill-opacity="0.26"/>
<circle cx="25" cy="25" r="24.5" stroke="white" stroke-opacity="0.4"/>
<path d="M24.8333 12C19.2783 12 15.805 14.7783 14.4167 20.3333C16.5 17.555 18.93 16.5133 21.7083 17.2083C23.2936 17.6038 24.4264 18.7546 25.6797 20.0273C27.7223 22.1009 30.0872 24.5 35.25 24.5C40.805 24.5 44.2783 21.7217 45.6667 16.1667C43.5833 18.945 41.1533 19.9867 38.375 19.2917C36.7897 18.8962 35.6569 17.7454 34.4036 16.4727C32.361 14.3991 29.9961 12 24.8333 12ZM14.4167 24.5C8.86165 24.5 5.38835 27.2783 4 32.8333C6.08333 30.055 8.51335 29.0133 11.2917 29.7083C12.877 30.1038 14.0098 31.2546 15.263 32.5273C17.3057 34.6009 19.6689 37 24.8333 37C30.3883 37 33.8617 34.2217 35.25 28.6667C33.1667 31.445 30.7367 32.4867 27.9583 31.7917C26.373 31.3962 25.2402 30.2454 23.987 28.9727C21.9443 26.8991 19.5794 24.5 14.4167 24.5Z" fill="url(#paint0_linear_258:191)"/>
<defs>
<linearGradient id="paint0_linear_258:191" x1="2.87604" y1="19.9432" x2="38.8618" y2="40.6938" gradientUnits="userSpaceOnUse">
<stop stop-color="#2198BD"/>
<stop offset="1" stop-color="#4EC0AA"/>
</linearGradient>
</defs>
</svg>
