<svg width="2049" height="1511" viewBox="0 0 2049 1511" fill="none" xmlns="http://www.w3.org/2000/svg">
<path d="M1728.21 547.857L1706.12 493.861L1763.41 505.042L1728.21 547.857ZM1708.49 495.767L1728.66 545.027L1760.77 505.966L1708.49 495.767Z" fill="#744CA2"/>
<path d="M1581.17 1102.36L1580.06 1101.43L1611.18 1068.28L1612.32 1069.21L1581.17 1102.36Z" fill="#744CA2"/>
<path d="M269.595 1059.88L238.438 1098.06L239.632 1098.91L270.789 1060.73L269.595 1059.88Z" fill="#744CA2"/>
<path d="M1807.78 1473.07L1766.15 1444.88L1767.05 1443.76L1808.65 1471.95L1807.78 1473.07Z" fill="#744CA2"/>
<path d="M507.774 -8.7405e-05L472 27.9377L472.963 29.0123L508.737 1.0745L507.774 -8.7405e-05Z" fill="#744CA2"/>
<path d="M294.86 1510.11L274 1485.87L275.171 1485L296.03 1509.24L294.86 1510.11Z" fill="#744CA2"/>
<path d="M828.113 138L808.701 162.723L809.911 163.551L829.323 138.828L828.113 138Z" fill="#744CA2"/>
<path d="M1484.71 306.123L1484.01 307.364L1510.94 320.607L1511.64 319.366L1484.71 306.123Z" fill="#744CA2"/>
<path d="M148.445 611.548L147.103 612.174L160.99 638.304L162.333 637.679L148.445 611.548Z" fill="#744CA2"/>
<path d="M1300.22 1439.35L1314.25 1413.1L1304.89 1409.12L1291.76 1433.22L1300.22 1439.35Z" fill="#FF1D9C"/>
<path d="M18.3376 553.396L5.25182 546L0 555.275L14.3113 563.079L18.3376 553.396Z" fill="#4F31E0"/>
<path d="M2030.9 494.167L2043.9 480.847L2049 486.343L2036.72 498.948L2030.9 494.167Z" fill="#6877FF"/>
<path d="M370.353 723.254L351.599 710.813L346.348 720.108L364.554 730.037L370.353 723.254Z" fill="#4F31E0"/>
</svg>
